Coordinates
version=1
nRows=21
nColumns=22
inDegrees=yes

Units are S.I. units (second, meters, Newtons, ...)
If the header above contains a line with 'inDegrees', this indicates whether rotational values are in degrees (yes) or radians (no).

endheader
time	pelvis_tilt	pelvis_list	pelvis_rotation	pelvis_tx	pelvis_ty	pelvis_tz	hip_flexion_r	hip_adduction_r	hip_rotation_r	knee_angle_r	ankle_angle_r	subtalar_angle_r	hip_flexion_l	hip_adduction_l	hip_rotation_l	knee_angle_l	ankle_angle_l	subtalar_angle_l	lumbar_extension	lumbar_bending	lumbar_rotation
      2.57000000	     -6.29201649	     -5.02945071	    -15.98815151	     -0.47723371	      0.96329421	      0.17763875	      9.48494951	     13.86456688	    -10.28525327	    -18.71521315	     12.19467689	     -4.53859091	     22.36795196	    -11.31831144	      8.71985124	    -46.54614901	     13.47066487	     -2.89831848	     -0.19932518	      8.00428065	     -7.91140974
      2.58000000	     -6.38428938	     -4.93865794	    -16.75634905	     -0.47081268	      0.96311892	      0.18151322	      8.64898511	     14.03883119	     -9.45113969	    -18.11547224	     12.34503279	     -4.52026149	     23.10846014	    -11.24006513	      9.25408561	    -45.21939772	     13.71722495	     -2.96598493	     -0.06265525	      7.87258383	     -7.63115590
      2.59000000	     -6.47101258	     -4.83874590	    -17.51159591	     -0.46437761	      0.96285724	      0.18533219	      7.82884983	     14.17476630	     -8.62661959	    -17.55451474	     12.50509031	     -4.50499946	     23.82411429	    -11.13742322	      9.80308144	    -43.86416232	     13.88697570	     -3.01446052	      0.07122255	      7.73820578	     -7.36352585
      2.60000000	     -6.55119317	     -4.72743608	    -18.24742775	     -0.45792156	      0.96250665	      0.18908299	      7.03283681	     14.26869833	     -7.82295961	    -17.04236275	     12.67762633	     -4.49243337	     24.51267009	    -11.00395869	     10.37351116	    -42.48086862	     13.96704634	     -3.02583688	      0.20242678	      7.59873691	     -7.11976144
      2.61000000	     -6.61834034	     -4.60418899	    -18.95908266	     -0.45143814	      0.96207192	      0.19275807	      6.26504290	     14.31776010	     -7.05028579	    -16.59226047	     12.86837341	     -4.48104664	     25.16416556	    -10.83374930	     10.97425935	    -41.06693926	     13.94853171	     -2.98397112	      0.32355469	      7.45065972	     -6.90008939
      2.62000000	     -6.67009223	     -4.47034951	    -19.64280616	     -0.44492191	      0.96155281	      0.19635571	      5.53385164	     14.32252752	     -6.32033856	    -16.21901824	     13.07885796	     -4.47028784	     25.77437611	    -10.62775976	     11.60913743	    -39.62307144	     13.81903237	     -2.87701486	      0.43242113	      7.29341217	     -6.70913168
      2.63000000	     -6.70621344	     -4.32710423	    -20.29573609	     -0.43838247	      0.96095904	      0.19986275	      4.84523567	     14.28671724	     -5.62691282	    -15.92974298	     13.31299846	     -4.46037917	     26.33683406	    -10.38834176	     12.27570350	    -38.13548967	     13.56985820	     -2.70163915	      0.52395797	      7.13015667	     -6.54949299
      2.64000000	     -6.72745740	     -4.17878975	    -20.92448528	     -0.43180559	      0.96028839	      0.20331151	      4.20177566	     14.21732520	     -4.97404370	    -15.73254725	     13.56708317	     -4.45292337	     26.85027791	    -10.12889840	     12.96424435	    -36.61296207	     13.18892442	     -2.46956328	      0.60083681	      6.96234604	     -6.42049680
      2.65000000	     -6.73335614	     -4.02867533	    -21.53282390	     -0.42520188	      0.95955152	      0.20671090	      3.59796332	     14.12187416	     -4.34567561	    -15.62143543	     13.84335619	     -4.44693417	     27.30842147	     -9.86101908	     13.66096426	    -35.04540196	     12.67001934	     -2.19438413	      0.65784397	      6.79257813	     -6.31048751
      2.66000000	     -6.72724920	     -3.88177912	    -22.12703828	     -0.41856487	      0.95875231	      0.21008455	      3.03017840	     14.00924954	     -3.73714442	    -15.59054266	     14.13497318	     -4.44145374	     27.71110763	     -9.59996504	     14.35322840	    -33.43518768	     12.00697365	     -1.90205052	      0.69648667	      6.62579469	     -6.21287668
      2.67000000	     -6.71098435	     -3.74131320	    -22.71026336	     -0.41189478	      0.95789968	      0.21343791	      2.48972724	     13.88523551	     -3.13775899	    -15.62442888	     14.43598418	     -4.43384572	     28.05906244	     -9.35671052	     15.02531565	    -31.78249705	     11.20208832	     -1.61308588	      0.71769590	      6.46650061	     -6.12606632
      2.68000000	     -6.67557984	     -3.61341452	    -23.29226643	     -0.40517554	      0.95701242	      0.21680377	      1.95112796	     13.75351945	     -2.54156128	    -15.70489659	     14.75774637	     -4.41177963	     28.33807403	     -9.14327795	     15.65945554	    -30.09198884	     10.28404304	     -1.32505826	      0.70993059	      6.31448622	     -6.02836355
      2.69000000	     -6.63381081	     -3.50733873	    -23.86758370	     -0.39841221	      0.95608310	      0.22018459	      1.41555753	     13.62914297	     -1.95213316	    -15.81604000	     15.08230501	     -4.36806230	     28.56379298	     -8.97297680	     16.25871193	    -28.37154056	      9.28180740	     -1.06073885	      0.68273269	      6.18328150	     -5.93345612
      2.70000000	     -6.59348534	     -3.41025469	    -24.43939991	     -0.39160316	      0.95510932	      0.22355927	      0.90340383	     13.50039571	     -1.37205021	    -15.97077095	     15.38732825	     -4.31392245	     28.74432419	     -8.83679822	     16.81616959	    -26.61901264	      8.24673506	     -0.83437929	      0.64858089	      6.06820547	     -5.84485067
      2.71000000	     -6.54889059	     -3.34393781	    -25.01198408	     -0.38472520	      0.95410855	      0.22697796	      0.36985823	     13.38796396	     -0.79630638	    -16.12323507	     15.70497778	     -4.21484161	     28.86809620	     -8.75553456	     17.33455200	    -24.84934819	      7.24796463	     -0.63795726	      0.59559242	      5.98239980	     -5.73397200
      2.72000000	     -6.52008534	     -3.28280972	    -25.59015278	     -0.37780673	      0.95305828	      0.23041946	     -0.12697020	     13.27516509	     -0.22120905	    -16.31921488	     15.99040749	     -4.09992004	     28.96244478	     -8.71281471	     17.80957126	    -23.06304667	      6.34962132	     -0.46583740	      0.55226340	      5.91301269	     -5.63877575
      2.73000000	     -6.49898418	     -3.24926793	    -26.17743972	     -0.37080652	      0.95198519	      0.23392081	     -0.63602128	     13.17822324	      0.34482035	    -16.51026947	     16.28830473	     -3.91568361	     29.00761661	     -8.72544541	     18.25283989	    -21.27098471	      5.62927895	     -0.30773454	      0.50571182	      5.87586291	     -5.50664117
      2.74000000	     -6.49966837	     -3.22105949	    -26.77792692	     -0.36375335	      0.95087267	      0.23746406	     -1.10767336	     13.08348513	      0.91536728	    -16.74069097	     16.56084935	     -3.69045740	     29.02940328	     -8.77700705	     18.66032072	    -19.48568870	      5.12903054	     -0.13367265	      0.47718605	      5.85829215	     -5.38051042
      2.75000000	     -6.52231394	     -3.20228551	    -27.39267524	     -0.35663651	      0.94973291	      0.24106591	     -1.55333480	     12.99534321	      1.48916641	    -16.99511810	     16.81538493	     -3.42020684	     29.02705571	     -8.86962890	     19.04246988	    -17.72374883	      4.87271141	      0.08621529	      0.46715903	      5.86381628	     -5.24578927
      2.76000000	     -6.56357565	     -3.19029668	    -28.02572592	     -0.34947279	      0.94857601	      0.24472359	     -1.96583400	     12.91246536	      2.08262546	    -17.29008088	     17.03341143	     -3.11868733	     29.00729584	     -8.99579974	     19.40394852	    -16.01618453	      4.85289950	      0.36975951	      0.47087795	      5.88842815	     -5.11903550
      2.77000000	     -6.61955665	     -3.18953994	    -28.67193372	     -0.34221874	      0.94742260	      0.24846626	     -2.37037476	     12.83533973	      2.67761465	    -17.59596353	     17.23891752	     -2.75010550	     28.96150047	     -9.15574801	     19.74826721	    -14.37798166	      5.02543586	      0.75764519	      0.48845960	      5.93317250	     -4.97191189
